<svg xmlns="http://www.w3.org/2000/svg" width="48" height="32" viewBox="0 0 48 32" fill="none"><rect width="48" height="32" rx="4" fill="#F0F0F0"/><path d="M18.528 10.4c.336-2.128-.016-3.584-1.216-4.768C16.112 4.4 14.128 4 11.648 4H5.312c-.48 0-.896.352-.976.816L2 22.4c-.064.384.24.736.64.736h4.64l1.168-7.36-.032.208c.08-.464.496-.816.976-.816h2.032c3.984 0 7.104-1.6 8.016-6.224.032-.144.048-.272.088-.4-.144-.08-.144-.08 0 0z" fill="#003087"/><path d="M19.52 10.8c-.048.304-.096.608-.16.912-.912 4.624-4.032 6.224-8.016 6.224h-2.032c-.48 0-.896.352-.976.816l-1.04 6.56-.304 1.872c-.048.336.208.64.544.64h3.824c.416 0 .784-.304.848-.72l.048-.24.896-5.664.064-.32c.064-.416.432-.72.848-.72h.544c3.472 0 6.192-1.392 6.992-5.424.336-1.68.16-3.088-.688-4.08-.256-.32-.576-.576-.944-.784-.128-.064-.256-.128-.4-.176z" fill="#0070E0"/><path d="M18.288 10.336c-.128-.032-.256-.064-.4-.096a7.008 7.008 0 0 0-.752-.128c-.528-.064-1.104-.096-1.728-.096h-5.232c-.128 0-.256.032-.368.08a.86.86 0 0 0-.608.736l-1.264 7.936-.032.208c.08-.464.496-.816.976-.816h2.032c3.984 0 7.104-1.6 8.016-6.224.048-.304.112-.608.16-.912a3.776 3.776 0 0 0-.608-.24c-.064-.032-.128-.048-.192-.064v-.384z" fill="#003087"/></svg>
