<svg xmlns="http://www.w3.org/2000/svg" width="48" height="32" viewBox="0 0 48 32" fill="none"><rect width="48" height="32" rx="4" fill="#1A1F71"/><path d="M20.456 21.536h-2.688l1.68-10.368h2.688l-1.68 10.368zm10.752-10.08c-.528-.192-1.36-.4-2.4-.4-2.656 0-4.528 1.376-4.544 3.344-.016 1.456 1.344 2.272 2.368 2.752 1.056.496 1.408.816 1.408 1.264-.016.688-.848 1.008-1.632 1.008-1.088 0-1.664-.16-2.56-.544l-.352-.16-.384 2.304c.64.288 1.824.528 3.056.544 2.832 0 4.672-1.36 4.688-3.472.016-1.152-.704-2.032-2.256-2.752-.944-.464-1.52-.768-1.52-1.232.016-.432.496-.864 1.568-.864.896-.016 1.536.176 2.048.384l.24.112.368-2.288zM37.368 11.168h-2.08c-.64 0-1.12.176-1.408.832l-3.984 9.28h2.816s.464-1.248.56-1.52l3.44.016c.08.352.32 1.504.32 1.504h2.496l-2.16-10.112zm-3.344 6.56c.224-.576 1.072-2.816 1.072-2.816-.016.016.224-.592.352-.976l.192.88s.528 2.496.64 3.008l-2.256-.096zM16.952 11.168l-2.624 7.056-.288-1.392c-.48-1.584-2-3.296-3.696-4.16l2.4 8.832h2.848l4.24-10.336h-2.88z" fill="white"/><path d="M11.704 11.168H7.064l-.048.272c3.376.832 5.616 2.848 6.544 5.264l-.944-4.688c-.16-.624-.624-.816-1.216-.848z" fill="#F9A51A"/></svg>
